<svg width="622" height="156" viewBox="0 0 622 156" fill="none" xmlns="http://www.w3.org/2000/svg">
<g clip-path="url(#clip0)">
<path d="M103.36 56.3099C96.9101 63.4299 87.0001 69.6999 74.5901 69.6999C54.4601 69.6999 41.0701 56.7799 41.0701 35.6099C41.0701 13.7699 57.5001 0.659912 69.9401 0.659912C79.4401 0.659912 83.7101 5.99991 84.5601 7.11991L86.7501 1.79991H101.66V28.7999H84.6601C84.3701 22.6299 81.3301 16.7999 74.5901 16.7999C67.8501 16.7999 63.2901 25.2499 63.2901 35.5999C63.2901 44.9999 68.1401 53.4499 77.1601 53.4499C85.1601 53.4499 91.4001 45.0899 92.2501 44.1399L103.36 56.3099Z" fill="#EE4344"/>
<path d="M106.21 34.66C106.21 14.15 119.88 0 139.54 0C162.8 0 173.63 14 173.63 35.32C173.63 56.64 161.63 69.89 140.2 69.89C120.36 69.89 106.21 58.4 106.21 34.66ZM149.89 35.32C149.89 23.83 146.75 14.62 139.44 14.62C133.65 14.53 129.66 22.88 129.66 34.62C129.66 47.1 134.12 55 140.2 55C146.28 55 149.89 47.1 149.89 35.32V35.32Z" fill="#EE4344"/>
<path d="M177.42 55.55H183.31V14.34H177.42V1.80005H206.42C229.42 1.80005 242.5 15.9501 242.5 34.09C242.5 55.74 229.4 68.18 206.04 68.18H177.42V55.55ZM206.42 55.55C216.49 55.36 220.66 45.96 220.66 34.09C220.66 23.93 216.49 14.34 206.42 14.34H202.81V55.55H206.42Z" fill="#EE4344"/>
<path d="M303 1.80005V22.8H286.61V14.34H271.42V27.4401H289.42V40.07H271.42V55.55H286.61V46.7201H303V68.18H245.78V55.55H251.78V14.34H245.78V1.80005H303Z" fill="#EE4344"/>
<path d="M274.42 87.8201V108.82H257.62V100.37H243.28V116.89H261.28V129.5H243.28V141.56H253V154.19H217.64V141.56H223.53V100.35H217.64V87.8201H274.42Z" fill="#333333"/>
<path d="M307.46 87.8201V100.07H302.33V120.58C302.33 135.86 305.75 139.09 311.83 139.09C317.62 139.09 321.42 136.81 321.42 120.48V100.35H316.29V87.8201H344.4V100.07H339.27V123.14C339.27 145.65 329.87 155.81 312.02 155.81C292.84 155.24 282.58 145.17 282.58 123.61V100.16H277.27V87.8201H307.46Z" fill="#333333"/>
<path d="M411 112.51H397V100.35H389V141.56H396.88V154.19H361.58V141.56H369.37V100.35H361.2V112.51H347.2V87.8201H411V112.51Z" fill="#333333"/>
<path d="M444 87.8201V100.07H438.87V120.58C438.87 135.86 442.29 139.09 448.37 139.09C454.16 139.09 457.96 136.81 457.96 120.48V100.35H452.83V87.8201H480.94V100.07H475.81V123.14C475.81 145.65 466.41 155.81 448.56 155.81C429.37 155.24 419.12 145.17 419.12 123.61V100.16H413.8V87.8201H444Z" fill="#333333"/>
<path d="M515.59 87.8201C537.59 87.8201 541.89 96.5501 541.89 107.38C541.89 114.78 536.01 120.01 528.12 121.15C534.68 122.1 540.56 127.79 540.56 134.63C540.56 138.71 541.13 141.09 542.84 141.09C544.27 141.09 545.03 139.95 545.03 138.09V134.95H551.39V140.18C551.39 148.06 548.07 155.37 537.53 155.37C525.09 155.37 519.1 148.82 519.1 137.71C519.1 129.07 518.1 126.98 509.61 126.98V141.7H515.4V154.23H484.73V141.66H490.05V100.26H484.73V87.8201H515.59ZM509.59 116.3H513.86C519.37 116.3 522.98 113.64 522.98 108.61C522.98 103.01 519.84 100.16 514.34 100.16H509.59V116.3Z" fill="#333333"/>
<path d="M612 87.8201V108.82H595.54V100.37H580.35V113.47H598.35V126.1H580.35V141.58H595.54V132.75H612V154.21H554.71V141.56H560.71V100.35H554.71V87.8201H612Z" fill="#333333"/>
<path d="M384.26 31.72C384.64 29.82 386.73 25.83 387.78 23.55L393 14H387.78V1.80005H413.32V14H408.19L390.63 44.82V55.82H395.94V68.18H365.56V55.8301H371V44.6301L352.55 14H347.9V1.80005H380.37V14H375.43L380.94 24C381.51 25.81 383.5 30.0801 383.88 31.7001L384.26 31.72Z" fill="#333333"/>
<path d="M413.79 34.66C413.79 14.15 427.46 0 447.12 0C470.38 0 481.21 14 481.21 35.32C481.21 56.64 469.21 69.89 447.78 69.89C427.94 69.89 413.79 58.4 413.79 34.66ZM457.47 35.32C457.47 23.83 454.34 14.62 447.03 14.62C441.23 14.53 437.25 22.88 437.25 34.62C437.25 47.06 441.71 54.94 447.78 54.94C453.85 54.94 457.47 47.1 457.47 35.32V35.32Z" fill="#333333"/>
<path d="M514.25 1.80005V14.05H509.12V34.5601C509.12 49.8501 512.54 53.0801 518.62 53.0801C524.41 53.0801 528.21 50.8001 528.21 34.4701V14.34H523.08V1.80005H551.19V14.05H546.06V37.1301C546.06 59.6301 536.66 69.79 518.81 69.79C499.62 69.22 489.37 59.16 489.37 37.6V14.15H484.05V1.80005H514.25Z" fill="#333333"/>
<path d="M585.84 1.80005C607.84 1.80005 612.14 10.5401 612.14 21.3701C612.14 28.7701 606.26 33.9901 598.38 35.1301C604.93 36.0801 610.81 41.78 610.81 48.62C610.81 52.7 611.38 55.07 613.09 55.07C614.52 55.07 615.28 53.93 615.28 52.07V48.9001H621.64V54.12C621.64 62.01 618.32 69.32 607.78 69.32C595.34 69.32 589.35 62.77 589.35 51.66C589.35 43.01 588.35 40.93 579.86 40.93V55.64H585.65V68.18H555V55.64H560.32V14.24H555V1.80005H585.84ZM579.84 30.2901H584.11C589.62 30.2901 593.23 27.6301 593.23 22.6C593.23 17.0001 590.09 14.15 584.59 14.15H579.84V30.2901Z" fill="#333333"/>
<path d="M28.39 20.7L34.18 31.34L10.73 42.07L34.18 52.61L30.58 62.4799L0 48.24V34.9399L28.39 20.7Z" fill="#333333"/>
<path d="M347.08 34.9399V48.24L316.51 62.4799L312.9 52.61L336.35 42.07L312.9 31.34L318.69 20.7L347.08 34.9399Z" fill="#333333"/>
</g>
<defs>
<clipPath id="clip0">
<rect width="621.64" height="155.81" fill="white"/>
</clipPath>
</defs>
</svg>
